<svg xmlns="http://www.w3.org/2000/svg" width="64" height="64">
    <path fill="#FFF" fill-rule="evenodd" d="M32 63.999C14.327 63.999 0 49.674 0 32 0 14.327 14.327 0 32 0c17.674 0 32 14.327 32 32 0 17.674-14.326 31.999-32 31.999zM32 4C16.561 4 4 16.561 4 32c0 15.44 12.561 28.063 28 28.063S60 47.44 60 32C60 16.561 47.439 4 32 4zm11.314 39.314a2 2 0 0 1-2.829 0L32 34.828l-8.485 8.486a2 2 0 0 1-2.829-2.829L29.172 32l-8.486-8.485a2 2 0 0 1 2.829-2.829L32 29.171l8.485-8.485a2 2 0 0 1 2.829 2.829L34.828 32l8.486 8.485a2 2 0 0 1 0 2.829z"/>
</svg>
