<svg xmlns="http://www.w3.org/2000/svg" width="20" height="19">
    <path fill="#F1592A" fill-rule="evenodd" d="M18.846 19h-8.845H10 1.154C.517 19 0 18.468 0 17.813v-5.938c0-.656.517-1.187 1.154-1.187.637 0 1.154.531 1.154 1.187v4.75h15.384v-4.75c0-.656.517-1.187 1.154-1.187.637 0 1.154.531 1.154 1.187v5.938c0 .655-.517 1.187-1.154 1.187zM14.319 8.315l-3.461 3.959a1.14 1.14 0 0 1-.858.393 1.14 1.14 0 0 1-.858-.393L5.681 8.315a1.202 1.202 0 0 1-.296-.794c0-.656.516-1.188 1.154-1.188.34 0 .646.152.857.394l1.45 1.658V1.188C8.846.532 9.363 0 10 0c.637 0 1.154.532 1.154 1.188v7.197l1.45-1.658c.211-.242.517-.394.858-.394.637 0 1.153.532 1.153 1.188 0 .305-.112.584-.296.794z"/>
</svg>
