<?xml version="1.0" encoding="utf-8"?>
<!-- Generator: Adobe Illustrator 16.0.0, SVG Export Plug-In . SVG Version: 6.00 Build 0)  -->
<!DOCTYPE svg PUBLIC "-//W3C//DTD SVG 1.1//EN" "http://www.w3.org/Graphics/SVG/1.1/DTD/svg11.dtd">
<svg version="1.1" id="Capa_1" xmlns="http://www.w3.org/2000/svg" xmlns:xlink="http://www.w3.org/1999/xlink" x="0px" y="0px"
	 width="146.994px" height="147px" viewBox="182.494 0 146.994 147" enable-background="new 182.494 0 146.994 147"
	 xml:space="preserve">
<path fill="#DCDCDC" d="M234.118,115.249l-21.931,11.962c-1.287,0.702-2.444,1.564-3.52,2.504
	C221.454,140.497,237.959,147,255.993,147c17.901,0,34.301-6.407,47.052-17.041c-1.177-0.993-2.452-1.886-3.867-2.59l-23.483-11.741
	c-3.034-1.517-4.951-4.618-4.951-8.01v-9.214c0.66-0.751,1.415-1.717,2.222-2.856c3.201-4.521,5.622-9.494,7.3-14.711
	c3.013-0.929,5.231-3.711,5.231-7.017v-9.835c0-2.164-0.963-4.097-2.457-5.45V44.317c0,0,2.92-22.125-27.043-22.125
	s-27.042,22.125-27.042,22.125v14.217c-1.498,1.354-2.458,3.287-2.458,5.45v9.835c0,2.59,1.362,4.87,3.4,6.188
	c2.458,10.698,8.893,18.397,8.893,18.397v8.986C238.786,110.664,236.994,113.679,234.118,115.249z"/>
<g>
	<path fill="#7B7B7B" d="M257.25,0.011c-40.586-0.693-74.052,31.647-74.746,72.233c-0.394,23.012,9.863,43.695,26.194,57.449
		c1.068-0.932,2.213-1.786,3.486-2.479l21.931-11.962c2.876-1.57,4.668-4.585,4.668-7.863v-8.987c0,0-6.438-7.699-8.892-18.397
		c-2.036-1.317-3.4-3.595-3.4-6.188v-9.835c0-2.164,0.962-4.097,2.458-5.45V44.314c0,0-2.92-22.125,27.042-22.125
		c29.963,0,27.042,22.125,27.042,22.125v14.217c1.498,1.354,2.457,3.287,2.457,5.45v9.835c0,3.306-2.219,6.088-5.23,7.017
		c-1.679,5.217-4.1,10.19-7.3,14.711c-0.808,1.14-1.563,2.105-2.222,2.856v9.214c0,3.392,1.916,6.496,4.95,8.01l23.484,11.741
		c1.408,0.705,2.682,1.595,3.854,2.585c15.838-13.208,26.069-32.956,26.449-55.194C330.176,34.171,297.839,0.705,257.25,0.011z"/>
</g>
</svg>
