<?xml version="1.0" encoding="utf-8"?>
<!-- Generator: Adobe Illustrator 16.0.0, SVG Export Plug-In . SVG Version: 6.00 Build 0)  -->
<!DOCTYPE svg PUBLIC "-//W3C//DTD SVG 1.1//EN" "http://www.w3.org/Graphics/SVG/1.1/DTD/svg11.dtd">
<svg version="1.1" id="Layer_1" xmlns="http://www.w3.org/2000/svg" xmlns:xlink="http://www.w3.org/1999/xlink" x="0px" y="0px"
	 width="33px" height="33px" viewBox="0 0 33 33" enable-background="new 0 0 33 33" xml:space="preserve">
<circle opacity="0.1" fill="#FFFFFF" cx="16.5" cy="16.5" r="16.5"/>
<path fill="#FFFFFF" d="M16.5,0C7.387,0,0,7.388,0,16.5S7.387,33,16.5,33C25.612,33,33,25.612,33,16.5S25.612,0,16.5,0z
	 M16.5,31.969c-8.543,0-15.469-6.927-15.469-15.469S7.957,1.031,16.5,1.031c8.542,0,15.469,6.927,15.469,15.469
	S25.042,31.969,16.5,31.969z"/>
<polygon fill="#FFFFFF" points="24,15.877 17,15.877 17,9 16,9 16,15.877 9,15.877 9,16.877 16,16.877 16,24 17,24 17,16.877 
	24,16.877 "/>
</svg>
