<?xml version="1.0" encoding="utf-8"?>
<!-- Generator: Adobe Illustrator 16.0.0, SVG Export Plug-In . SVG Version: 6.00 Build 0)  -->
<!DOCTYPE svg PUBLIC "-//W3C//DTD SVG 1.1//EN" "http://www.w3.org/Graphics/SVG/1.1/DTD/svg11.dtd">
<svg version="1.1" id="Layer_1" xmlns="http://www.w3.org/2000/svg" xmlns:xlink="http://www.w3.org/1999/xlink" x="0px" y="0px"
	 width="56px" height="39.703px" viewBox="0 0 56 39.703" enable-background="new 0 0 56 39.703" xml:space="preserve">
<path opacity="0.26" fill="#868686" enable-background="new    " d="M14.766,0c0,0-8.16,12.415-12.806,20.158
	C0.319,22.893,0,26.671,0,27.449c0,3.982,2.205,12.254,12.07,12.254c9.864,0,12.927-6.188,12.927-12.438
	c0-6.25-4.549-10.091-4.549-10.091L27.142,0H14.766z M43.624,0c0,0-8.159,12.415-12.806,20.158c-1.641,2.735-1.96,6.513-1.96,7.291
	c0,3.982,2.205,12.254,12.069,12.254s12.928-6.188,12.928-12.438c0-6.25-4.55-10.091-4.55-10.091L56,0H43.624z"/>
</svg>
