<?xml version="1.0" encoding="utf-8"?>
<!-- Generator: Adobe Illustrator 16.0.0, SVG Export Plug-In . SVG Version: 6.00 Build 0)  -->
<!DOCTYPE svg PUBLIC "-//W3C//DTD SVG 1.1//EN" "http://www.w3.org/Graphics/SVG/1.1/DTD/svg11.dtd">
<svg version="1.1" id="Layer_1" xmlns="http://www.w3.org/2000/svg" xmlns:xlink="http://www.w3.org/1999/xlink" x="0px" y="0px"
	 width="57px" height="39.703px" viewBox="9.083 0 57 39.703" enable-background="new 9.083 0 57 39.703" xml:space="preserve">
<path opacity="0.26" fill="#868686" enable-background="new    " d="M51.317,39.703c0,0,8.159-12.416,12.806-20.158
	c1.641-2.735,1.96-6.513,1.96-7.292C66.084,8.271,63.878,0,54.014,0c-9.865,0-12.928,6.188-12.928,12.438s4.549,10.091,4.549,10.091
	l-6.693,17.175H51.317z M22.459,39.703c0,0,8.16-12.416,12.805-20.158c1.641-2.735,1.96-6.513,1.96-7.292
	C37.225,8.271,35.02,0,25.155,0S12.228,6.188,12.228,12.438s4.55,10.091,4.55,10.091l-6.694,17.175H22.459z"/>
</svg>
